<?xml version="1.0" encoding="utf-8"?>
<!-- Generator: Adobe Illustrator 23.0.6, SVG Export Plug-In . SVG Version: 6.00 Build 0)  -->
<svg version="1.1" id="Layer_1" xmlns="http://www.w3.org/2000/svg" xmlns:xlink="http://www.w3.org/1999/xlink" x="0px" y="0px"
	 viewBox="0 0 148.4 145.7" style="enable-background:new 0 0 148.4 145.7;" xml:space="preserve">
<style type="text/css">
	.st0{fill:#FFFFFF;}
</style>
<g>
	<path class="st0" d="M74.2,2.7C34.8,2.7,2.7,34.8,2.7,74.2s32.1,71.5,71.5,71.5s71.5-32.1,71.5-71.5S113.6,2.7,74.2,2.7z
		 M74.2,132.7c-32.3,0-58.5-26.2-58.5-58.5S42,15.7,74.2,15.7s58.5,26.2,58.5,58.5S106.5,132.7,74.2,132.7z"/>
	
		<rect x="0.1" y="10.2" transform="matrix(0.7071 -0.7071 0.7071 0.7071 -7.2811 17.5781)" class="st0" width="34.9" height="14.8"/>
	
		<rect x="123.4" y="0.1" transform="matrix(0.7071 -0.7071 0.7071 0.7071 25.8913 97.6635)" class="st0" width="14.8" height="34.9"/>
	<polygon class="st0" points="78.7,35.7 65.7,35.7 65.7,88.2 66,89.2 65.8,89.3 85.8,112.5 95.8,104.2 78.7,83.6 	"/>
</g>
</svg>
