<?xml version="1.0" encoding="utf-8"?>
<!-- Generator: Adobe Illustrator 23.0.6, SVG Export Plug-In . SVG Version: 6.00 Build 0)  -->
<svg version="1.1" id="Layer_1" xmlns="http://www.w3.org/2000/svg" xmlns:xlink="http://www.w3.org/1999/xlink" x="0px" y="0px"
	 viewBox="0 0 188.7 188.5" style="enable-background:new 0 0 188.7 188.5;" xml:space="preserve">
<style type="text/css">
	.st0{fill:#CECECE;}
</style>
<g>
	<polygon class="st0" points="12.6,59.2 3.8,59.2 3.8,53.1 11.6,53.1 11.6,49.9 3.8,49.9 3.8,44.6 12.1,44.6 12.1,41.4 0,41.4 
		0,62.3 12.6,62.3 	"/>
	<path class="st0" d="M21.7,59.5c-1.9,0-3.8-0.6-5-1.3l-0.8,3.2c1.1,0.7,3.4,1.3,5.6,1.3c5.3,0,7.9-2.9,7.9-6.3c0-3-1.7-4.8-5.3-6.2
		c-2.8-1.1-4-1.8-4-3.4c0-1.2,1-2.5,3.4-2.5c1.9,0,3.4,0.6,4.1,1l0.9-3.1c-1.1-0.6-2.7-1-5-1c-4.5,0-7.3,2.6-7.3,6
		c0,3,2.2,4.8,5.6,6.1c2.6,1,3.7,1.9,3.7,3.5C25.4,58.4,24.1,59.5,21.7,59.5z"/>
	<path class="st0" d="M43.7,44.3c1.7,0,3.1,0.4,4,0.8l0.8-3c-0.8-0.4-2.5-0.9-5-0.9c-6.3,0-11.1,4.2-11.1,11c0,6.4,4,10.5,10.6,10.5
		c2.5,0,4.5-0.5,5.4-0.9l-0.6-3c-1,0.5-2.6,0.8-4.1,0.8c-4.6,0-7.2-2.9-7.2-7.5C36.4,46.9,39.5,44.3,43.7,44.3z"/>
	<path class="st0" d="M66.4,47.2c0-1.8-0.6-3.2-1.8-4.2c-1.4-1.2-3.4-1.7-6.4-1.7c-2.2,0-4.3,0.2-5.7,0.4v20.6h3.8v-8.6h1.9
		c2.2,0.1,3.1,0.9,3.7,3.7c0.6,2.6,1.1,4.3,1.4,4.9h3.9c-0.4-0.8-1-3.2-1.6-5.8c-0.5-2-1.4-3.5-2.9-4v-0.1
		C64.5,51.7,66.4,49.8,66.4,47.2z M58.4,50.9h-2.2v-6.6c0.4-0.1,1.2-0.2,2.4-0.2c2.4,0,4,1.1,4,3.4C62.6,49.6,61,50.9,58.4,50.9z"/>
	<path class="st0" d="M79.5,41.1c-5.8,0-9.9,4.5-9.9,11c0,6.1,3.7,10.6,9.6,10.6c5.7,0,9.9-4,9.9-11C89.1,45.7,85.6,41.1,79.5,41.1z
		 M79.4,59.6c-3.6,0-5.8-3.4-5.8-7.7c0-4.3,2-7.8,5.8-7.8s5.7,3.7,5.7,7.7C85.1,56.2,83.1,59.6,79.4,59.6z"/>
	<path class="st0" d="M111.3,50.9c-0.5,2.5-1,4.9-1.4,7.2h-0.1c-0.3-2.3-0.8-4.6-1.3-7.1l-2.1-9.6h-4l-2.2,9.4
		c-0.6,2.6-1.2,5.1-1.5,7.3h-0.1c-0.3-2.1-0.8-4.7-1.3-7.3l-2-9.5h-4l5.1,20.9h4.1l2.4-9.8c0.6-2.4,1-4.4,1.4-6.6h0.1
		c0.3,2.3,0.6,4.3,1.2,6.6l2.1,9.8h4l5.6-20.9h-3.9L111.3,50.9z"/>
	<rect x="0.7" y="66.4" class="st0" width="4.9" height="27"/>
	<path class="st0" d="M12.1,93.3h4.5v-9.6c0-4.4-0.1-8-0.3-11.5h0.1c1.3,3.1,3.1,6.3,4.8,9.3l7,11.9h5.1v-27h-4.5v9.4
		c0,4.1,0.1,7.6,0.4,11.2h-0.1c-1.2-2.9-2.8-6.1-4.6-9l-6.9-11.6H12v26.9L12.1,93.3L12.1,93.3z"/>
	<rect x="40" y="66.4" class="st0" width="4.9" height="27"/>
	<path class="st0" d="M51.4,93.3h4.8V83.2c0.7,0.1,1.5,0.2,2.4,0.2c3.5,0,6.5-0.9,8.5-2.9c1.5-1.4,2.3-3.6,2.3-6.1s-1-4.7-2.6-6
		c-1.7-1.4-4.3-2.2-7.9-2.2c-3.3,0-5.7,0.2-7.5,0.6L51.4,93.3L51.4,93.3z M56.3,70.2c0.5-0.1,1.5-0.2,2.8-0.2c3.4,0,5.4,1.6,5.4,4.6
		c0,3.2-2.2,5-5.9,5c-1,0-1.8-0.1-2.4-0.2v-9.2L56.3,70.2L56.3,70.2z"/>
	<path class="st0" d="M78.4,66.4l-8.6,27h5.1l2.3-7.6h8.5l2.4,7.6h5.2l-8.7-27H78.4z M78,82l2.1-6.7c0.5-1.6,0.9-3.5,1.3-5.1h0.1
		c0.4,1.6,0.8,3.4,1.4,5.1l2.1,6.6h-7V82z"/>
	<path class="st0" d="M108.9,66.4l-3.2,6.9c-0.9,2-1.7,3.6-2.3,5.4h-0.1c-0.7-1.8-1.4-3.4-2.3-5.3l-3.2-6.9h-5.6l8.5,15.7v11.2h4.9
		V82l8.9-15.6L108.9,66.4L108.9,66.4z"/>
	<path class="st0" d="M56.4,130.8V147h2.9v-5.7l1.5-1.7l4.6,7.4h3.5l-5.9-9.3l5.6-6.9H65l-4.2,5.7c-0.4,0.5-0.8,1.1-1.2,1.7h-0.1
		v-7.4H56.4z"/>
	<path class="st0" d="M71.3,144.9c1.5,1.5,3.6,2.2,6.3,2.2c2.2,0,4.2-0.5,5.2-0.9V138h-5.7v2.3h2.8v4c-0.4,0.2-1.2,0.3-2.2,0.3
		c-3.4,0-5.6-2.2-5.6-5.9c0-3.8,2.4-5.8,5.9-5.8c1.7,0,2.8,0.3,3.7,0.7l0.7-2.4c-0.8-0.4-2.3-0.8-4.3-0.8c-5.4,0-9,3.3-9,8.4
		C69,141.4,69.9,143.6,71.3,144.9z"/>
	<path class="st0" d="M91,132.6v12c0,0.5,0.1,1,0.2,1.4s0.3,0.7,0.6,0.9c0.3,0.2,0.7,0.3,1.2,0.3c0.3,0,0.5,0,0.7-0.1
		s0.3-0.1,0.5-0.1l-0.3-1.6c-0.1,0-0.2,0-0.2,0h-0.1c-0.1,0-0.2-0.1-0.3-0.2c-0.1-0.1-0.2-0.3-0.2-0.6v-12.1H91V132.6z"/>
	<path class="st0" d="M104.7,146.9v-6.2c0-1.3-0.2-2.2-0.7-2.9s-1.3-1-2.3-1c-0.7,0-1.3,0.2-1.8,0.5s-1,0.7-1.5,1.1l0,0l-0.2-1.4
		h-1.7v9.9h2.1v-7c0.4-0.4,0.8-0.8,1.2-1c0.4-0.2,0.8-0.3,1.2-0.3c0.6,0,1,0.2,1.3,0.5c0.3,0.4,0.4,1,0.4,1.8v6L104.7,146.9
		L104.7,146.9z"/>
	<path class="st0" d="M109.8,133c-0.2-0.2-0.5-0.3-0.9-0.3s-0.7,0.1-0.9,0.3s-0.4,0.5-0.4,0.9s0.1,0.7,0.4,0.9
		c0.2,0.2,0.5,0.3,0.9,0.3s0.7-0.1,0.9-0.3c0.2-0.2,0.4-0.5,0.4-0.9C110.1,133.6,110,133.3,109.8,133z"/>
	<rect x="107.8" y="137" class="st0" width="2.1" height="9.9"/>
	<path class="st0" d="M115.9,138.9c0.4-0.3,0.9-0.4,1.5-0.4c0.3,0,0.6,0.1,0.9,0.2c0.3,0.1,0.6,0.3,0.8,0.6l1-1.4
		c-0.4-0.3-0.8-0.6-1.2-0.8c-0.5-0.2-1-0.3-1.7-0.3c-0.9,0-1.7,0.2-2.4,0.6c-0.7,0.4-1.3,1-1.8,1.8s-0.7,1.7-0.7,2.8s0.2,2,0.6,2.8
		s1,1.4,1.7,1.8c0.7,0.4,1.5,0.6,2.4,0.6c0.6,0,1.1-0.1,1.7-0.3s1.1-0.5,1.5-0.9l-0.9-1.4c-0.3,0.3-0.6,0.5-1,0.6s-0.8,0.3-1.2,0.3
		c-0.5,0-1-0.1-1.4-0.4c-0.4-0.3-0.8-0.7-1-1.2s-0.4-1.1-0.4-1.8s0.1-1.3,0.4-1.8S115.5,139.2,115.9,138.9z"/>
	<path class="st0" d="M124.5,133c-0.2-0.2-0.5-0.3-0.9-0.3s-0.7,0.1-0.9,0.3c-0.2,0.2-0.4,0.5-0.4,0.9s0.1,0.7,0.4,0.9
		c0.2,0.2,0.5,0.3,0.9,0.3s0.7-0.1,0.9-0.3c0.2-0.2,0.4-0.5,0.4-0.9C124.8,133.6,124.7,133.3,124.5,133z"/>
	<rect x="122.5" y="137" class="st0" width="2.1" height="9.9"/>
	<path class="st0" d="M130.5,145.6c-0.5,0-1-0.1-1.5-0.3s-0.9-0.5-1.3-0.8l-1,1.4c0.5,0.4,1.1,0.7,1.7,1s1.3,0.4,2,0.4
		c0.8,0,1.5-0.1,2.1-0.4s1-0.6,1.3-1.1s0.4-1,0.4-1.5s-0.1-0.9-0.3-1.2c-0.2-0.3-0.4-0.6-0.7-0.8c-0.3-0.2-0.6-0.4-0.9-0.6
		s-0.7-0.3-1-0.4c-0.4-0.1-0.7-0.3-1-0.4c-0.3-0.1-0.6-0.3-0.8-0.5c-0.2-0.2-0.3-0.4-0.3-0.7s0.1-0.6,0.4-0.9
		c0.3-0.2,0.7-0.4,1.2-0.4c0.4,0,0.8,0.1,1.1,0.2c0.4,0.2,0.7,0.4,1.1,0.6l1-1.3c-0.4-0.3-0.8-0.6-1.4-0.8c-0.5-0.2-1.2-0.3-1.8-0.3
		c-0.7,0-1.4,0.1-1.9,0.4c-0.5,0.3-0.9,0.6-1.2,1c-0.3,0.4-0.4,0.9-0.4,1.5s0.1,1,0.4,1.4s0.6,0.7,1.1,0.9s0.9,0.4,1.3,0.6
		c0.4,0.1,0.7,0.3,1,0.4c0.3,0.2,0.6,0.3,0.8,0.5c0.2,0.2,0.3,0.5,0.3,0.8c0,0.4-0.1,0.7-0.4,0.9
		C131.5,145.5,131.1,145.6,130.5,145.6z"/>
	<path class="st0" d="M38.2,0C19.4,0,3.7,13.4,0.7,31.9L0,36h152.7v116.5H36.2v-53h-36v89h165c13,0,23.5-10.5,23.5-23.5V0H38.2z"/>
</g>
</svg>
