<?xml version="1.0" encoding="utf-8"?>
<!-- Generator: Adobe Illustrator 23.0.6, SVG Export Plug-In . SVG Version: 6.00 Build 0)  -->
<svg version="1.1" id="Layer_1" xmlns="http://www.w3.org/2000/svg" xmlns:xlink="http://www.w3.org/1999/xlink" x="0px" y="0px"
	 viewBox="0 0 189 188.5" style="enable-background:new 0 0 189 188.5;" xml:space="preserve">
<style type="text/css">
	.st0{fill:#CECECE;}
</style>
<g>
	<path class="st0" d="M38.5,0C19.7,0,4,13.4,1,31.9L0.3,36H153v116.5H36.5V76h-36v112.5h165c13,0,23.5-10.5,23.5-23.5V0H38.5z"/>
	<rect y="42.1" class="st0" width="5.3" height="29"/>
	<path class="st0" d="M25.1,54.5l-7.5-12.4h-6.1v29h4.9V60.7c0-4.8-0.1-8.6-0.3-12.4h0.1c1.4,3.3,3.3,6.8,5.2,10L29,71h5.5V42h-4.9
		v10.1c0,4.4,0.1,8.2,0.5,12H30C28.7,61.1,27.1,57.7,25.1,54.5z"/>
	<rect x="40.9" y="42.1" class="st0" width="5.3" height="29"/>
	<path class="st0" d="M69.2,44.2c-1.8-1.6-4.7-2.4-8.5-2.4c-3.6,0-6.2,0.3-8.1,0.6V71h5.3V60.1c0.7,0.2,1.6,0.2,2.6,0.2
		c3.8,0,7-1,9.2-3.1c1.6-1.6,2.5-3.8,2.5-6.6C72,47.9,70.9,45.7,69.2,44.2z M60.4,56.2c-1.1,0-1.9-0.1-2.6-0.2v-9.8
		c0.6-0.1,1.6-0.3,3.1-0.3c3.7,0,5.9,1.7,5.9,4.9C66.8,54.3,64.3,56.2,60.4,56.2z"/>
	<path class="st0" d="M81,42.1l-9.3,29h5.5l2.5-8.2h9.2l2.6,8.2h5.7l-9.4-29H81z M80.5,58.9l2.2-7.2c0.5-1.7,1-3.7,1.4-5.4h0.1
		c0.4,1.7,0.9,3.7,1.5,5.4l2.3,7.1h-7.5V58.9z"/>
	<path class="st0" d="M109.7,49.5c-1,2.1-1.8,3.9-2.5,5.8h-0.1c-0.8-2-1.5-3.6-2.5-5.7l-3.5-7.4H95l9.2,16.9v12.1h5.3V58.9l9.6-16.8
		h-6L109.7,49.5z"/>
	<path class="st0" d="M56.6,130.7v16.2h2.9v-5.7l1.5-1.7l4.6,7.4h3.5l-5.9-9.3l5.6-6.9h-3.6l-4.2,5.7c-0.4,0.5-0.8,1.1-1.2,1.7h-0.1
		v-7.4H56.6z"/>
	<path class="st0" d="M78.3,133c1.7,0,2.8,0.3,3.7,0.7l0.7-2.4c-0.8-0.4-2.3-0.8-4.3-0.8c-5.4,0-9,3.3-9,8.4c0,2.4,0.8,4.6,2.3,5.9
		c1.5,1.5,3.6,2.2,6.3,2.2c2.2,0,4.2-0.5,5.2-0.9V138h-5.7v2.3h2.8v4c-0.4,0.2-1.2,0.3-2.2,0.3c-3.4,0-5.6-2.2-5.6-5.9
		C72.4,135,74.8,133,78.3,133z"/>
	<path class="st0" d="M91.2,132.5v12c0,0.5,0.1,1,0.2,1.4s0.3,0.7,0.6,0.9c0.3,0.2,0.7,0.3,1.2,0.3c0.3,0,0.5,0,0.7-0.1
		c0.2,0,0.3-0.1,0.4-0.1l-0.3-1.6c-0.1,0-0.2,0-0.2,0h-0.1c-0.1,0-0.2-0.1-0.3-0.2c-0.1-0.1-0.2-0.3-0.2-0.6v-12.1h-2
		C91.2,132.4,91.2,132.5,91.2,132.5z"/>
	<path class="st0" d="M104.9,146.9v-6.2c0-1.3-0.2-2.2-0.7-2.9s-1.3-1-2.3-1c-0.7,0-1.3,0.2-1.8,0.5s-1,0.7-1.5,1.1l0,0l-0.2-1.4
		h-1.7v9.9h2.1v-7c0.4-0.4,0.8-0.8,1.2-1s0.8-0.3,1.2-0.3c0.6,0,1,0.2,1.3,0.5c0.3,0.4,0.4,1,0.4,1.8v6L104.9,146.9L104.9,146.9z"/>
	<path class="st0" d="M110,133c-0.2-0.2-0.5-0.3-0.9-0.3s-0.7,0.1-0.9,0.3c-0.2,0.2-0.4,0.5-0.4,0.9s0.1,0.7,0.4,0.9
		c0.2,0.2,0.5,0.3,0.9,0.3s0.7-0.1,0.9-0.3c0.2-0.2,0.4-0.5,0.4-0.9S110.3,133.2,110,133z"/>
	<rect x="108.1" y="137" class="st0" width="2.1" height="9.9"/>
	<path class="st0" d="M116.2,138.9c0.4-0.3,0.9-0.4,1.5-0.4c0.3,0,0.6,0.1,0.9,0.2c0.3,0.1,0.6,0.3,0.8,0.6l1-1.3
		c-0.4-0.3-0.8-0.6-1.2-0.8c-0.5-0.2-1-0.3-1.7-0.3c-0.9,0-1.7,0.2-2.4,0.6c-0.7,0.4-1.3,1-1.8,1.8s-0.7,1.7-0.7,2.8s0.2,2,0.6,2.8
		s1,1.4,1.7,1.8s1.5,0.6,2.4,0.6c0.6,0,1.1-0.1,1.7-0.3s1.1-0.5,1.5-0.9l-0.9-1.4c-0.3,0.3-0.6,0.5-1,0.6c-0.4,0.2-0.8,0.3-1.2,0.3
		c-0.5,0-1-0.1-1.4-0.4c-0.4-0.3-0.8-0.7-1-1.2s-0.4-1.1-0.4-1.8s0.1-1.3,0.4-1.8C115.4,139.6,115.7,139.2,116.2,138.9z"/>
	<rect x="122.8" y="137" class="st0" width="2.1" height="9.9"/>
	<path class="st0" d="M124.7,133c-0.2-0.2-0.5-0.3-0.9-0.3s-0.7,0.1-0.9,0.3c-0.2,0.2-0.4,0.5-0.4,0.9s0.1,0.7,0.4,0.9
		c0.2,0.2,0.5,0.3,0.9,0.3s0.7-0.1,0.9-0.3c0.2-0.2,0.4-0.5,0.4-0.9S125,133.2,124.7,133z"/>
	<path class="st0" d="M130.8,145.6c-0.5,0-1-0.1-1.5-0.3s-0.9-0.5-1.3-0.8l-1,1.3c0.5,0.4,1.1,0.7,1.7,1s1.3,0.4,2,0.4
		c0.8,0,1.5-0.1,2.1-0.4c0.6-0.3,1-0.6,1.3-1.1s0.4-1,0.4-1.5s-0.1-0.9-0.3-1.2s-0.4-0.6-0.7-0.8s-0.6-0.4-0.9-0.6s-0.7-0.3-1-0.4
		c-0.4-0.1-0.7-0.3-1-0.4c-0.3-0.1-0.6-0.3-0.8-0.5s-0.3-0.4-0.3-0.7s0.1-0.6,0.4-0.9c0.3-0.2,0.7-0.4,1.2-0.4
		c0.4,0,0.8,0.1,1.1,0.2c0.4,0.2,0.7,0.4,1.1,0.6l1-1.3c-0.4-0.3-0.8-0.6-1.4-0.8c-0.5-0.2-1.1-0.3-1.8-0.3s-1.4,0.1-1.9,0.4
		c-0.5,0.3-0.9,0.6-1.2,1s-0.4,0.9-0.4,1.5s0.1,1,0.4,1.4s0.6,0.7,1.1,0.9c0.4,0.2,0.9,0.4,1.3,0.6c0.4,0.1,0.7,0.3,1,0.4
		c0.3,0.2,0.6,0.3,0.8,0.5s0.3,0.5,0.3,0.8c0,0.4-0.1,0.7-0.4,0.9C131.8,145.4,131.4,145.6,130.8,145.6z"/>
</g>
</svg>
