<?xml version="1.0" encoding="utf-8"?>
<!-- Generator: Adobe Illustrator 23.0.6, SVG Export Plug-In . SVG Version: 6.00 Build 0)  -->
<svg version="1.1" id="Layer_1" xmlns="http://www.w3.org/2000/svg" xmlns:xlink="http://www.w3.org/1999/xlink" x="0px" y="0px"
	 viewBox="0 0 43 34.9" style="enable-background:new 0 0 43 34.9;" xml:space="preserve">
<style type="text/css">
	.st0{fill:#FFFFFF;stroke:#FFFFFF;stroke-width:3;stroke-miterlimit:10;}
	.st1{fill:#FFFFFF;stroke:#FFFFFF;stroke-width:1.5;stroke-miterlimit:10;}
	.st2{fill:#FFFFFF;}
</style>
<g>
	<path class="st0" d="M39.5,9.4c0.6,0,1,0.5,1,1v21c0,0.6-0.5,1-1,1h-36c-0.6,0-1-0.5-1-1v-21c0-0.6,0.5-1,1-1H39.5 M39.5,8.4h-36
		c-1.1,0-2,0.9-2,2v21c0,1.1,0.9,2,2,2h36c1.1,0,2-0.9,2-2v-21C41.5,9.3,40.6,8.4,39.5,8.4L39.5,8.4z"/>
</g>
<g>
	<path class="st1" d="M26.4,3.3c2,0,3.6,1.4,3.6,3c0,0.2,0,0.3,0,0.3C29.5,7,27.5,7,26.4,7s-3.1,0-3.6-0.3c0,0,0-0.1,0-0.3
		C22.7,4.7,24.3,3.3,26.4,3.3 M26.4,1c-3.4,0-6,2.4-6,5.3s2.7,3,5.9,3s5.9-0.1,5.9-3C32.3,3.4,29.7,1,26.4,1L26.4,1z"/>
</g>
<g>
	<path class="st1" d="M16,3.3c2.1,0,3.7,1.4,3.6,3c0,0.2,0,0.3,0,0.3C19.1,7,17,7,16,7s-3.1,0-3.6-0.3c0,0,0-0.1,0-0.3
		C12.4,4.7,14,3.3,16,3.3 M16,1c-3.2,0-5.9,2.4-5.8,5.3c0,2.9,2.7,3,5.9,3c3.2,0,5.9-0.1,5.9-3S19.3,1,16,1L16,1z"/>
</g>
<rect x="22.9" y="4.8" transform="matrix(0.7071 -0.7071 0.7071 0.7071 -1.1285 20.6644)" class="st2" width="3" height="13.8"/>
<rect x="16.9" y="4.8" transform="matrix(-0.7071 -0.7071 0.7071 -0.7071 23.1072 32.9601)" class="st2" width="3" height="13.8"/>
</svg>
